<svg xmlns="http://www.w3.org/2000/svg" viewBox="0 0 160 160" role="img" aria-label="手繪小貓頭像">
  <g fill="none" stroke="#191919" stroke-linecap="round" stroke-linejoin="round">
    <path d="M46 69L34 35l32 19" fill="#6f6b62" stroke-width="6"/>
    <path d="M114 69l12-34-32 19" fill="#6f6b62" stroke-width="6"/>
    <path d="M37 91c0-34 19-56 43-56s43 22 43 56c0 29-17 48-43 48s-43-19-43-48z" fill="#6f6b62" stroke-width="6"/>
    <path d="M55 75c9-12 43-12 52 0 7 10 8 34-2 47-10 13-40 13-50 0-10-13-9-37 0-47z" fill="#fff8ea" stroke-width="5"/>
    <circle cx="66" cy="88" r="5" fill="#191919" stroke-width="4"/>
    <circle cx="96" cy="88" r="5" fill="#191919" stroke-width="4"/>
    <path d="M77 101l5 4 5-4" stroke-width="4"/>
    <path d="M67 113c8 6 22 6 30 0" stroke-width="4"/>
    <path d="M45 99l-21-5" stroke-width="3"/>
    <path d="M46 110l-22 3" stroke-width="3"/>
    <path d="M115 99l21-5" stroke-width="3"/>
    <path d="M114 110l22 3" stroke-width="3"/>
  </g>
</svg>
