<svg xmlns="http://www.w3.org/2000/svg" viewBox="0 0 160 160" role="img" aria-label="手繪綿羊頭像">
  <g fill="none" stroke="#191919" stroke-linecap="round" stroke-linejoin="round">
    <path d="M42 86c-10-3-15-11-12-20 3-9 12-13 22-10 2-12 12-20 25-18 13 1 22 10 23 22 9-3 18 1 22 10 4 10-1 19-11 23 4 11-2 23-15 27-10 3-20 1-28-5-9 6-20 6-29 0-12-7-15-20-7-29z" fill="#fff6df" stroke-width="6"/>
    <path d="M54 95c0-20 13-35 31-35s31 15 31 35c0 22-13 36-31 36s-31-14-31-36z" fill="#f5cda7" stroke-width="5"/>
    <path d="M42 83c-12 0-22 7-24 17 12 3 23-1 30-10" fill="#e7b088" stroke-width="5"/>
    <path d="M126 83c12 0 22 7 24 17-12 3-23-1-30-10" fill="#e7b088" stroke-width="5"/>
    <circle cx="72" cy="95" r="4" fill="#191919" stroke-width="4"/>
    <circle cx="99" cy="95" r="4" fill="#191919" stroke-width="4"/>
    <path d="M80 109c5 4 10 4 15 0" stroke-width="4"/>
    <path d="M68 121c10 6 25 6 35 0" stroke-width="4"/>
    <path d="M67 51c8-7 20-8 30-2" stroke="#eacb95" stroke-width="4"/>
  </g>
</svg>
